<svg xmlns="http://www.w3.org/2000/svg" xmlns:xlink="http://www.w3.org/1999/xlink" width="471" zoomAndPan="magnify" viewBox="0 0 353.25 112.499997" height="150" preserveAspectRatio="xMidYMid meet" version="1.0"><defs><g/><clipPath id="a75a3be4f3"><path d="M 55 8.179688 L 58 8.179688 L 58 11 L 55 11 Z M 55 8.179688 " clip-rule="nonzero"/></clipPath><clipPath id="09d962f812"><path d="M 67 14 L 69.503906 14 L 69.503906 18 L 67 18 Z M 67 14 " clip-rule="nonzero"/></clipPath><clipPath id="4d1a780c75"><path d="M 44.117188 14 L 47 14 L 47 18 L 44.117188 18 Z M 44.117188 14 " clip-rule="nonzero"/></clipPath><clipPath id="b3711ab35a"><path d="M 45 11 L 69 11 L 69 29.085938 L 45 29.085938 Z M 45 11 " clip-rule="nonzero"/></clipPath></defs><g fill="#ffffff" fill-opacity="1"><g transform="translate(37.33214, 66.940866)"><g><path d="M 12.363281 0.65625 C 20.402344 0.65625 27.402344 -4.484375 31.945312 -13.621094 C 32.492188 -14.660156 30.359375 -16.300781 29.484375 -14.988281 C 27.675781 -12.253906 23.957031 -10.886719 19.746094 -10.886719 C 14.496094 -10.886719 11.597656 -12.417969 11.597656 -14.933594 C 11.597656 -16.519531 12.582031 -18.160156 14.113281 -18.542969 C 15.699219 -17.449219 17.230469 -17.121094 18.707031 -17.121094 C 23.191406 -17.121094 25.269531 -18.652344 25.269531 -21.496094 C 25.269531 -22.917969 24.941406 -23.628906 24.011719 -23.628906 C 22.480469 -23.628906 20.402344 -23.082031 17.503906 -23.082031 C 16.082031 -23.738281 15.042969 -25.160156 15.042969 -26.964844 C 15.042969 -29.320312 16.628906 -31.671875 20.402344 -31.671875 C 23.957031 -31.671875 24.777344 -29.59375 24.777344 -27.183594 C 24.777344 -26.527344 25.269531 -26.035156 26.199219 -26.035156 C 28.335938 -26.035156 30.359375 -28.554688 30.359375 -32.21875 C 30.359375 -35.335938 28.9375 -40.804688 20.675781 -40.804688 C 12.527344 -40.804688 7.273438 -36.429688 7.273438 -29.757812 C 7.273438 -26.527344 8.53125 -24.394531 10.558594 -23.246094 C 11.214844 -22.863281 11.050781 -22.042969 10.230469 -21.988281 C 4.375 -21.496094 0.65625 -17.011719 0.65625 -10.613281 C 0.65625 -3.335938 5.960938 0.65625 12.363281 0.65625 Z M 12.363281 0.65625 "/></g></g></g><g fill="#ffffff" fill-opacity="1"><g transform="translate(65.556712, 66.940866)"><g><path d="M 6.398438 0 C 9.738281 0 12.910156 -3.554688 15.152344 -7.984375 L 15.371094 -7.984375 C 14.769531 -3.445312 16.574219 0 20.074219 0 C 26.144531 0 29.15625 -8.53125 31.835938 -13.621094 C 32.382812 -14.660156 30.195312 -16.300781 29.375 -14.988281 C 28.277344 -13.238281 26.910156 -12.199219 25.050781 -12.199219 C 22.644531 -12.199219 22.042969 -14.386719 23.902344 -18.378906 L 30.085938 -34.1875 C 31.507812 -37.304688 30.742188 -39.328125 28.828125 -39.328125 C 27.183594 -39.328125 25.160156 -38.398438 23.082031 -33.367188 C 20.730469 -27.730469 20.730469 -24.722656 19.855469 -24.722656 C 18.433594 -24.722656 18.652344 -27.347656 14.277344 -27.347656 C 4.867188 -27.347656 0.164062 -15.863281 0.164062 -7.765625 C 0.164062 -3.390625 2.078125 0 6.398438 0 Z M 11.378906 -11.324219 C 9.296875 -11.324219 8.53125 -12.691406 8.53125 -14.277344 C 8.53125 -16.683594 10.339844 -19.363281 13.019531 -19.363281 C 15.152344 -19.363281 16.027344 -18.050781 16.027344 -16.464844 C 16.027344 -14.167969 14.113281 -11.324219 11.378906 -11.324219 Z M 11.378906 -11.324219 "/></g></g></g><g fill="#ffffff" fill-opacity="1"><g transform="translate(93.671886, 66.940866)"><g><path d="M 28.882812 -14.988281 C 27.292969 -12.691406 25.214844 -10.230469 23.574219 -10.230469 C 22.316406 -10.230469 21.332031 -11.214844 22.097656 -14.113281 C 24.339844 -20.730469 26.527344 -23.300781 26.527344 -25.324219 C 26.527344 -26.527344 26.035156 -27.347656 24.613281 -27.347656 C 22.042969 -27.347656 21.660156 -25.269531 19.855469 -25.269531 C 18.433594 -25.269531 18.652344 -27.347656 14.277344 -27.347656 C 4.867188 -27.347656 0.164062 -15.863281 0.164062 -7.765625 C 0.164062 -3.664062 2.625 -0.492188 6.398438 -0.492188 C 9.1875 -0.492188 12.308594 -2.84375 13.785156 -6.617188 C 14.277344 -7.710938 15.261719 -7.710938 15.261719 -6.78125 C 15.261719 -1.96875 10.777344 3.445312 5.742188 3.5 C 2.078125 3.445312 -0.164062 1.640625 -0.4375 -1.09375 C -0.546875 -2.1875 -4.429688 0.21875 -4.429688 5.796875 C -4.429688 11.050781 -1.148438 14.277344 4.648438 14.277344 C 10.886719 14.277344 14.933594 10.011719 18.433594 -1.203125 C 18.871094 -0.4375 19.527344 0 20.347656 0 C 25.652344 0 28.167969 -6.945312 31.34375 -13.621094 C 31.945312 -14.878906 29.539062 -15.917969 28.882812 -14.988281 Z M 11.378906 -11.324219 C 9.296875 -11.324219 8.53125 -12.691406 8.53125 -14.277344 C 8.53125 -16.683594 10.339844 -19.363281 13.019531 -19.363281 C 15.152344 -19.363281 16.027344 -18.050781 16.027344 -16.464844 C 16.027344 -14.167969 14.113281 -11.324219 11.378906 -11.324219 Z M 11.378906 -11.324219 "/></g></g></g><g fill="#ffffff" fill-opacity="1"><g transform="translate(121.294768, 66.940866)"><g><path d="M 28.445312 -14.988281 C 26.855469 -12.691406 24.777344 -10.230469 23.136719 -10.230469 C 21.878906 -10.230469 20.839844 -11.269531 21.714844 -14.332031 C 23.574219 -19.855469 25.269531 -22.644531 25.269531 -24.941406 C 25.269531 -26.691406 24.394531 -27.347656 22.808594 -27.347656 C 20.019531 -27.347656 17.777344 -23.464844 15.535156 -16.300781 C 14.660156 -13.730469 13.292969 -12.253906 10.886719 -12.253906 C 9.078125 -12.253906 8.585938 -13.183594 8.585938 -14.714844 C 8.585938 -17.941406 11.050781 -21.605469 11.050781 -25.160156 C 11.050781 -26.582031 10.558594 -27.347656 9.351562 -27.347656 C 6.289062 -27.347656 3.773438 -22.972656 1.257812 -14.988281 C 0.164062 -11.433594 0.0546875 -8.203125 0.0546875 -6.5625 C 0.0546875 -2.40625 2.515625 -0.546875 5.46875 -0.546875 C 9.023438 -0.546875 11.707031 -2.789062 13.183594 -6.453125 C 13.730469 -7.820312 14.824219 -7.546875 14.714844 -6.34375 C 14.113281 -1.039062 10.066406 3.445312 5.25 3.5 C 1.859375 3.554688 -0.164062 1.640625 -0.4375 -1.09375 C -0.546875 -2.1875 -4.429688 0.21875 -4.429688 5.796875 C -4.429688 11.050781 -1.148438 14.277344 4.648438 14.277344 C 10.722656 14.277344 14.496094 10.066406 17.996094 -1.203125 C 18.433594 -0.4375 19.089844 0 19.910156 0 C 25.214844 0 27.730469 -6.945312 30.90625 -13.621094 C 31.507812 -14.878906 29.101562 -15.917969 28.445312 -14.988281 Z M 28.445312 -14.988281 "/></g></g></g><g fill="#ffffff" fill-opacity="1"><g transform="translate(148.48006, 66.940866)"><g/></g></g><g fill="#ffffff" fill-opacity="1"><g transform="translate(168.171619, 66.940866)"><g><path d="M 6.726562 2.296875 C 11.925781 2.296875 16.683594 -0.984375 20.675781 -6.945312 C 20.949219 -2.40625 23.957031 0.546875 28.71875 0.546875 C 35.0625 0.546875 41.132812 -4.757812 41.132812 -13.019531 C 41.132812 -16.410156 39.929688 -18.433594 38.507812 -19.855469 C 38.234375 -20.183594 38.125 -20.839844 39 -21.058594 C 43.15625 -21.824219 46.054688 -25.707031 46.054688 -29.976562 C 46.054688 -35.773438 40.476562 -40.695312 28.609375 -40.695312 C 13.785156 -40.695312 4.59375 -32.601562 4.59375 -23.082031 C 4.59375 -19.363281 6.945312 -15.972656 11.433594 -15.972656 C 16.738281 -15.972656 19.582031 -20.675781 18.597656 -23.082031 C 17.394531 -23.082031 16.519531 -24.285156 16.519531 -25.871094 C 16.519531 -31.125 21.988281 -33.367188 28.335938 -33.367188 C 32.65625 -33.367188 36.265625 -32 36.265625 -28.609375 C 36.265625 -25.214844 33.804688 -23.355469 31.507812 -23.355469 C 29.757812 -23.355469 29.375 -24.777344 30.414062 -27.730469 C 30.960938 -29.539062 30.304688 -30.6875 28.003906 -30.6875 C 26.363281 -30.6875 25.160156 -29.976562 24.449219 -28.058594 C 23.519531 -25.707031 22.480469 -22.917969 21.550781 -20.457031 C 18.980469 -13.839844 14.496094 -11.105469 10.832031 -11.105469 C 7.984375 -11.105469 5.359375 -12.746094 5.359375 -15.152344 C 5.359375 -15.535156 4.976562 -15.808594 4.539062 -15.808594 C 0.164062 -15.808594 -2.734375 -11.378906 -2.734375 -6.890625 C -2.734375 -2.351562 0.382812 2.296875 6.726562 2.296875 Z M 29.210938 -11.324219 C 27.019531 -11.324219 26.089844 -13.183594 26.089844 -15.152344 C 26.089844 -17.285156 27.402344 -19.417969 29.8125 -19.417969 C 32.273438 -19.472656 33.367188 -18.050781 33.367188 -16.519531 C 33.367188 -13.949219 31.835938 -11.324219 29.210938 -11.324219 Z M 29.210938 -11.324219 "/></g></g></g><g fill="#ffffff" fill-opacity="1"><g transform="translate(211.657149, 66.940866)"><g><path d="M 5.796875 0 C 9.683594 0 12.964844 -3.554688 15.152344 -7.984375 L 15.371094 -7.984375 C 14.714844 -3.445312 16.300781 0 20.074219 0 C 26.144531 0 29.15625 -8.53125 31.835938 -13.621094 C 32.382812 -14.660156 30.195312 -16.300781 29.375 -14.988281 C 28.277344 -13.238281 26.910156 -12.199219 25.050781 -12.199219 C 22.644531 -12.199219 22.042969 -14.386719 23.902344 -18.378906 C 25.105469 -21.550781 26.527344 -23.246094 26.527344 -25.324219 C 26.527344 -26.527344 26.035156 -27.347656 24.613281 -27.347656 C 22.042969 -27.347656 21.660156 -25.269531 19.855469 -25.269531 C 18.433594 -25.269531 18.652344 -27.347656 14.277344 -27.347656 C 4.867188 -27.347656 0.164062 -15.863281 0.164062 -8.257812 C 0.164062 -3.390625 2.078125 0 5.796875 0 Z M 11.269531 -11.324219 C 9.574219 -11.324219 8.53125 -12.417969 8.53125 -14.277344 C 8.53125 -16.683594 10.339844 -19.363281 13.183594 -19.363281 C 14.933594 -19.363281 16.027344 -18.269531 16.027344 -16.464844 C 16.027344 -14.167969 14.113281 -11.324219 11.269531 -11.324219 Z M 11.269531 -11.324219 "/></g></g></g><g fill="#ffffff" fill-opacity="1"><g transform="translate(239.772322, 66.940866)"><g><path d="M 10.285156 0 C 16.628906 0 22.425781 -4.703125 27.238281 -13.621094 C 27.839844 -14.660156 25.652344 -16.300781 24.777344 -14.988281 C 22.316406 -11.214844 17.886719 -9.296875 14.167969 -9.296875 C 11.050781 -9.296875 8.476562 -10.285156 8.476562 -12.199219 C 8.476562 -12.910156 9.023438 -13.074219 9.40625 -12.855469 C 10.667969 -12.144531 12.144531 -11.980469 13.675781 -11.980469 C 19.035156 -11.980469 22.480469 -16.464844 22.480469 -20.457031 C 22.480469 -24.066406 20.238281 -27.347656 15.152344 -27.347656 C -0.546875 -27.347656 -5.085938 0 10.285156 0 Z M 12.253906 -16.082031 C 10.503906 -16.082031 9.683594 -17.121094 9.683594 -18.324219 C 9.683594 -19.800781 10.996094 -21.386719 13.128906 -21.386719 C 14.824219 -21.386719 15.644531 -20.347656 15.644531 -19.144531 C 15.644531 -17.777344 14.386719 -16.082031 12.253906 -16.082031 Z M 12.253906 -16.082031 "/></g></g></g><g fill="#ffffff" fill-opacity="1"><g transform="translate(263.292792, 66.940866)"><g><path d="M 26.199219 -14.988281 C 25.105469 -13.402344 23.792969 -12.636719 22.371094 -12.417969 C 23.082031 -14.660156 23.519531 -17.066406 23.519531 -19.582031 C 23.519531 -25.160156 21.277344 -27.347656 17.558594 -27.347656 C 16.300781 -27.347656 14.605469 -26.746094 13.074219 -25.160156 C 12.363281 -24.449219 11.378906 -24.722656 11.597656 -25.488281 C 12.253906 -28.058594 13.675781 -31.070312 15.042969 -34.1875 C 16.683594 -37.742188 15.972656 -39.328125 13.730469 -39.328125 C 10.558594 -39.328125 8.421875 -35.0625 5.414062 -26.855469 C 4.210938 -23.574219 2.84375 -19.582031 1.257812 -14.988281 C -1.695312 -6.398438 2.460938 0 9.242188 0 C 12.800781 0 16.464844 -2.40625 19.199219 -6.125 C 24.394531 -6.453125 27.074219 -10.339844 28.664062 -13.621094 C 29.265625 -14.878906 26.855469 -15.917969 26.199219 -14.988281 Z M 8.53125 -14.277344 C 8.53125 -16.683594 10.339844 -19.363281 13.019531 -19.363281 C 15.152344 -19.363281 16.027344 -18.050781 16.027344 -16.464844 C 16.027344 -14.167969 14.113281 -11.324219 11.378906 -11.324219 C 9.296875 -11.324219 8.53125 -12.691406 8.53125 -14.277344 Z M 8.53125 -14.277344 "/></g></g></g><g fill="#ffffff" fill-opacity="1"><g transform="translate(288.235423, 66.940866)"><g><path d="M 28.445312 -14.988281 C 26.855469 -12.691406 24.777344 -10.230469 23.136719 -10.230469 C 21.878906 -10.230469 20.839844 -11.269531 21.714844 -14.332031 C 23.574219 -19.855469 25.269531 -22.644531 25.269531 -24.941406 C 25.269531 -26.691406 24.394531 -27.347656 22.808594 -27.347656 C 20.019531 -27.347656 17.777344 -23.464844 15.535156 -16.300781 C 14.660156 -13.730469 13.292969 -12.253906 10.886719 -12.253906 C 9.078125 -12.253906 8.585938 -13.183594 8.585938 -14.714844 C 8.585938 -17.941406 11.050781 -21.605469 11.050781 -25.160156 C 11.050781 -26.582031 10.558594 -27.347656 9.351562 -27.347656 C 6.289062 -27.347656 3.773438 -22.972656 1.257812 -14.988281 C 0.164062 -11.433594 0.0546875 -8.203125 0.0546875 -6.5625 C 0.0546875 -2.40625 2.515625 -0.546875 5.46875 -0.546875 C 9.023438 -0.546875 11.707031 -2.789062 13.183594 -6.453125 C 13.730469 -7.820312 14.824219 -7.546875 14.714844 -6.34375 C 14.113281 -1.039062 10.066406 3.445312 5.25 3.5 C 1.859375 3.554688 -0.164062 1.640625 -0.4375 -1.09375 C -0.546875 -2.1875 -4.429688 0.21875 -4.429688 5.796875 C -4.429688 11.050781 -1.148438 14.277344 4.648438 14.277344 C 10.722656 14.277344 14.496094 10.066406 17.996094 -1.203125 C 18.433594 -0.4375 19.089844 0 19.910156 0 C 25.214844 0 27.730469 -6.945312 30.90625 -13.621094 C 31.507812 -14.878906 29.101562 -15.917969 28.445312 -14.988281 Z M 28.445312 -14.988281 "/></g></g></g><g clip-path="url(#a75a3be4f3)"><path fill="#fefefe" d="M 57.976562 9.308594 C 57.976562 9.457031 57.949219 9.601562 57.890625 9.738281 C 57.835938 9.878906 57.757812 10 57.65625 10.105469 C 57.550781 10.210938 57.433594 10.289062 57.300781 10.347656 C 57.164062 10.40625 57.023438 10.433594 56.878906 10.433594 C 56.734375 10.433594 56.59375 10.40625 56.460938 10.347656 C 56.328125 10.289062 56.207031 10.210938 56.105469 10.105469 C 56.003906 10 55.921875 9.878906 55.867188 9.738281 C 55.8125 9.601562 55.785156 9.457031 55.785156 9.308594 C 55.785156 9.160156 55.8125 9.015625 55.867188 8.878906 C 55.921875 8.742188 56.003906 8.617188 56.105469 8.511719 C 56.207031 8.40625 56.328125 8.328125 56.460938 8.269531 C 56.59375 8.210938 56.734375 8.183594 56.878906 8.183594 C 57.023438 8.183594 57.164062 8.210938 57.300781 8.269531 C 57.433594 8.328125 57.550781 8.40625 57.65625 8.511719 C 57.757812 8.617188 57.835938 8.742188 57.890625 8.878906 C 57.949219 9.015625 57.976562 9.160156 57.976562 9.308594 Z M 57.976562 9.308594 " fill-opacity="1" fill-rule="nonzero"/></g><g clip-path="url(#09d962f812)"><path fill="#fefefe" d="M 69.503906 16.023438 C 69.503906 16.171875 69.476562 16.316406 69.421875 16.453125 C 69.363281 16.589844 69.285156 16.710938 69.183594 16.816406 C 69.078125 16.921875 68.960938 17.003906 68.828125 17.0625 C 68.691406 17.117188 68.554688 17.148438 68.40625 17.148438 C 68.261719 17.148438 68.125 17.117188 67.988281 17.0625 C 67.855469 17.003906 67.734375 16.921875 67.632812 16.816406 C 67.53125 16.710938 67.453125 16.589844 67.394531 16.453125 C 67.339844 16.316406 67.3125 16.171875 67.3125 16.023438 C 67.3125 15.875 67.339844 15.730469 67.394531 15.59375 C 67.453125 15.453125 67.53125 15.332031 67.632812 15.226562 C 67.734375 15.121094 67.855469 15.039062 67.988281 14.984375 C 68.125 14.925781 68.261719 14.898438 68.40625 14.898438 C 68.554688 14.898438 68.691406 14.925781 68.828125 14.984375 C 68.960938 15.039062 69.078125 15.121094 69.183594 15.226562 C 69.285156 15.332031 69.363281 15.453125 69.421875 15.59375 C 69.476562 15.730469 69.503906 15.875 69.503906 16.023438 Z M 69.503906 16.023438 " fill-opacity="1" fill-rule="nonzero"/></g><g clip-path="url(#4d1a780c75)"><path fill="#fefefe" d="M 46.308594 16.023438 C 46.308594 16.171875 46.28125 16.316406 46.226562 16.453125 C 46.167969 16.589844 46.089844 16.710938 45.988281 16.816406 C 45.886719 16.921875 45.765625 17.003906 45.632812 17.0625 C 45.496094 17.117188 45.359375 17.148438 45.214844 17.148438 C 45.066406 17.148438 44.929688 17.117188 44.792969 17.0625 C 44.660156 17.003906 44.542969 16.921875 44.4375 16.816406 C 44.335938 16.710938 44.257812 16.589844 44.199219 16.453125 C 44.144531 16.316406 44.117188 16.171875 44.117188 16.023438 C 44.117188 15.875 44.144531 15.730469 44.199219 15.59375 C 44.257812 15.453125 44.335938 15.332031 44.4375 15.226562 C 44.542969 15.121094 44.660156 15.039062 44.792969 14.984375 C 44.929688 14.925781 45.066406 14.898438 45.214844 14.898438 C 45.359375 14.898438 45.496094 14.925781 45.632812 14.984375 C 45.765625 15.039062 45.886719 15.121094 45.988281 15.226562 C 46.089844 15.332031 46.167969 15.453125 46.226562 15.59375 C 46.28125 15.730469 46.308594 15.875 46.308594 16.023438 Z M 46.308594 16.023438 " fill-opacity="1" fill-rule="nonzero"/></g><path fill="#fefefe" d="M 62.765625 17.683594 C 62.765625 17.929688 62.679688 18.136719 62.511719 18.308594 C 62.34375 18.484375 62.140625 18.570312 61.902344 18.570312 C 61.667969 18.570312 61.464844 18.484375 61.296875 18.308594 C 61.128906 18.136719 61.042969 17.929688 61.042969 17.683594 C 61.042969 17.441406 61.128906 17.234375 61.296875 17.058594 C 61.464844 16.886719 61.667969 16.800781 61.902344 16.800781 C 62.140625 16.800781 62.34375 16.886719 62.511719 17.058594 C 62.679688 17.234375 62.765625 17.441406 62.765625 17.683594 Z M 62.765625 17.683594 " fill-opacity="1" fill-rule="nonzero"/><path fill="#fefefe" d="M 52.5625 17.527344 C 52.5625 17.769531 52.476562 17.980469 52.308594 18.152344 C 52.140625 18.324219 51.9375 18.410156 51.699219 18.410156 C 51.460938 18.410156 51.257812 18.324219 51.089844 18.152344 C 50.921875 17.980469 50.839844 17.769531 50.839844 17.527344 C 50.839844 17.28125 50.921875 17.074219 51.089844 16.902344 C 51.257812 16.730469 51.460938 16.644531 51.699219 16.644531 C 51.9375 16.644531 52.140625 16.730469 52.308594 16.902344 C 52.476562 17.074219 52.5625 17.28125 52.5625 17.527344 Z M 52.5625 17.527344 " fill-opacity="1" fill-rule="nonzero"/><g clip-path="url(#b3711ab35a)"><path fill="#fefefe" d="M 67.878906 17.902344 L 67.699219 18.148438 L 64.058594 23.167969 C 63.613281 23.789062 62.984375 24.21875 62.292969 24.421875 L 61.902344 19.089844 C 61.894531 18.941406 61.722656 18.910156 61.671875 19.042969 L 59.71875 24.097656 C 59.097656 23.671875 58.660156 22.992188 58.539062 22.207031 L 57.089844 12.761719 L 57.097656 12.726562 L 56.820312 11.003906 L 55.105469 22.207031 C 54.984375 22.992188 54.546875 23.671875 53.925781 24.097656 L 51.972656 19.042969 C 51.917969 18.910156 51.75 18.941406 51.738281 19.089844 L 51.351562 24.441406 C 50.664062 24.234375 50.042969 23.804688 49.597656 23.191406 L 45.960938 18.171875 L 45.78125 17.925781 C 45.679688 17.785156 45.464844 17.894531 45.507812 18.0625 L 48.097656 27.503906 L 48.351562 28.429688 L 48.359375 28.464844 C 48.367188 28.492188 48.375 28.515625 48.386719 28.539062 C 48.386719 28.546875 48.390625 28.554688 48.394531 28.5625 C 48.402344 28.578125 48.410156 28.597656 48.417969 28.613281 C 48.421875 28.621094 48.425781 28.628906 48.429688 28.636719 C 48.4375 28.652344 48.445312 28.667969 48.453125 28.683594 C 48.457031 28.691406 48.464844 28.699219 48.46875 28.707031 C 48.476562 28.71875 48.488281 28.734375 48.496094 28.746094 C 48.503906 28.753906 48.507812 28.761719 48.515625 28.769531 C 48.523438 28.78125 48.535156 28.792969 48.546875 28.804688 C 48.550781 28.8125 48.558594 28.820312 48.566406 28.828125 C 48.574219 28.839844 48.585938 28.851562 48.597656 28.863281 C 48.605469 28.867188 48.613281 28.875 48.621094 28.878906 C 48.632812 28.890625 48.648438 28.902344 48.660156 28.914062 C 48.667969 28.917969 48.671875 28.921875 48.679688 28.925781 C 48.699219 28.941406 48.71875 28.957031 48.738281 28.96875 C 48.746094 28.972656 48.75 28.972656 48.757812 28.976562 C 48.773438 28.988281 48.789062 28.996094 48.804688 29.003906 C 48.8125 29.007812 48.824219 29.011719 48.832031 29.015625 C 48.847656 29.019531 48.859375 29.027344 48.871094 29.03125 C 48.882812 29.035156 48.894531 29.039062 48.90625 29.042969 C 48.917969 29.046875 48.929688 29.050781 48.941406 29.054688 C 48.953125 29.058594 48.964844 29.058594 48.976562 29.0625 C 48.988281 29.066406 49 29.066406 49.015625 29.070312 C 49.027344 29.074219 49.039062 29.074219 49.050781 29.078125 C 49.0625 29.078125 49.074219 29.078125 49.085938 29.078125 C 49.101562 29.082031 49.113281 29.082031 49.128906 29.082031 C 49.136719 29.082031 49.148438 29.066406 49.160156 29.066406 C 49.175781 29.066406 49.1875 29.050781 49.203125 29.050781 C 49.203125 29.050781 49.207031 29.050781 49.207031 29.050781 C 49.214844 29.050781 49.222656 29.0625 49.230469 29.0625 C 49.246094 29.0625 49.261719 29.070312 49.277344 29.066406 C 49.304688 29.0625 49.332031 29.0625 49.355469 29.054688 C 50.851562 28.671875 54.210938 27.890625 56.820312 27.890625 C 59.429688 27.890625 62.792969 28.671875 64.285156 29.058594 C 64.3125 29.0625 64.339844 29.070312 64.363281 29.074219 C 64.378906 29.074219 64.394531 29.0625 64.410156 29.0625 C 64.421875 29.0625 64.429688 29.050781 64.4375 29.050781 C 64.453125 29.050781 64.46875 29.066406 64.484375 29.066406 C 64.496094 29.066406 64.503906 29.074219 64.515625 29.074219 C 64.53125 29.074219 64.542969 29.078125 64.554688 29.074219 C 64.566406 29.074219 64.578125 29.074219 64.589844 29.074219 C 64.605469 29.074219 64.617188 29.070312 64.628906 29.070312 C 64.640625 29.066406 64.652344 29.066406 64.664062 29.0625 C 64.675781 29.058594 64.691406 29.058594 64.703125 29.054688 C 64.714844 29.050781 64.726562 29.046875 64.738281 29.042969 C 64.75 29.039062 64.761719 29.035156 64.769531 29.03125 C 64.785156 29.027344 64.796875 29.019531 64.8125 29.015625 C 64.820312 29.011719 64.828125 29.007812 64.839844 29.003906 C 64.855469 28.996094 64.871094 28.988281 64.886719 28.976562 C 64.890625 28.972656 64.898438 28.972656 64.902344 28.96875 C 64.925781 28.957031 64.945312 28.941406 64.964844 28.925781 C 64.972656 28.921875 64.976562 28.917969 64.984375 28.914062 C 64.996094 28.902344 65.011719 28.890625 65.023438 28.878906 C 65.03125 28.875 65.039062 28.867188 65.042969 28.863281 C 65.054688 28.851562 65.066406 28.839844 65.078125 28.828125 C 65.085938 28.820312 65.089844 28.8125 65.097656 28.804688 C 65.109375 28.792969 65.117188 28.78125 65.128906 28.769531 C 65.132812 28.761719 65.140625 28.753906 65.148438 28.746094 C 65.15625 28.734375 65.164062 28.71875 65.175781 28.707031 C 65.179688 28.699219 65.183594 28.691406 65.191406 28.683594 C 65.199219 28.667969 65.207031 28.652344 65.214844 28.636719 C 65.21875 28.628906 65.222656 28.621094 65.226562 28.613281 C 65.234375 28.597656 65.242188 28.578125 65.25 28.5625 C 65.253906 28.554688 65.253906 28.546875 65.257812 28.539062 C 65.269531 28.515625 65.277344 28.488281 65.285156 28.464844 L 65.292969 28.429688 L 65.546875 27.503906 L 68.089844 18.21875 L 68.09375 18.21875 L 68.105469 18.195312 L 68.148438 18.039062 C 68.195312 17.871094 67.980469 17.761719 67.878906 17.902344 Z M 67.878906 17.902344 " fill-opacity="1" fill-rule="nonzero"/></g></svg>